<svg xmlns="http://www.w3.org/2000/svg" viewBox="0 0 640 640"><!--!Font Awesome Pro 7.1.0 by @fontawesome - https://fontawesome.com License - https://fontawesome.com/license (Commercial License) Copyright 2025 Fonticons, Inc.--><path opacity="0.8" fill="#9c6fc8" d="M225.2 535.2C220.3 552.2 230.2 569.9 247.2 574.8C264.2 579.7 281.9 569.8 286.8 552.8L414.8 104.8C419.7 87.8 409.8 70.1 392.8 65.2C375.8 60.3 358.1 70.2 353.2 87.2L225.2 535.2z"/><path fill="#23599f" d="M457.4 201.4C444.9 213.9 444.9 234.2 457.4 246.7L530.8 320.1L457.4 393.5C444.9 406 444.9 426.3 457.4 438.8C469.9 451.3 490.2 451.3 502.7 438.8L598.7 342.8C611.2 330.3 611.2 310 598.7 297.5L502.7 201.5C490.2 189 469.9 189 457.4 201.5zM182.7 201.4C170.2 188.9 149.9 188.9 137.4 201.4L41.4 297.4C28.9 309.9 28.9 330.2 41.4 342.7L137.4 438.7C149.9 451.2 170.2 451.2 182.7 438.7C195.2 426.2 195.2 405.9 182.7 393.4L109.3 320L182.6 246.6C195.1 234.1 195.1 213.8 182.6 201.3z"/></svg>